<svg xmlns="http://www.w3.org/2000/svg" width="1748" height="1036" viewBox="0 0 1748 1036"><rect width="1748" height="1036" fill="#fff"/><g font-family="Helvetica Neue, Arial, Hiragino Kaku Gothic ProN, Meiryo, sans-serif" fill="#20252b"><path d="M1026,20h570v132h132v732h-132v132h-570v-132h-132v-732h132Z" fill="#e9ebe3"/><g transform="translate(152 152)"><rect width="570" height="732" fill="#e9ebe3"/><text x="51.3" y="102.48" font-size="21.09" letter-spacing="4.218">SAMPLE / 01</text><text x="285" y="247.60500000000005" text-anchor="middle" dominant-baseline="middle" font-size="116.85" font-weight="700">サンプル</text><text x="285" y="411.19500000000005" text-anchor="middle" dominant-baseline="middle" font-size="116.85" font-weight="700">パーティ</text><text x="51.3" y="614.88" font-size="21.09">ドイツ小箱 / 表面</text><text x="51.3" y="666.12" font-size="16.872">95 × 122 × 22 mm</text></g><g transform="translate(1026 152)"><rect width="570" height="732" fill="#e9ebe3"/><text x="45.6" y="54.9" font-size="14.25" font-weight="600">SAMPLE / BOARD GAME</text><text x="45.6" y="98.82000000000001" font-size="35.339999999999996" font-weight="700">サンプルパーティ</text><text x="45.6" y="142.74" font-size="19.950000000000003" font-weight="600">サンプルの世界へようこそ。</text><text x="45.6" y="175.68" font-size="14.819999999999999" font-weight="400">サンプルをならべて、サンプルをひとつ。</text><text x="45.6" y="203.496" font-size="14.819999999999999" font-weight="400">あちらのサンプル、こちらのサンプル。</text><text x="45.6" y="231.312" font-size="14.819999999999999" font-weight="400">最後まで、だいたいサンプルです。</text><rect x="45.6" y="256.2" width="478.79999999999995" height="157.38" rx="4.5600000000000005" fill="none" stroke="#20252b" stroke-opacity=".65" stroke-width="1.1400000000000001"/><text x="285" y="334.89" text-anchor="middle" dominant-baseline="middle" font-size="39.900000000000006" fill-opacity=".8">image</text><text x="45.6" y="457.5" font-size="14.819999999999999" font-weight="600">01 サンプル　→　02 サンプル　→　03 サンプル</text><path d="M45.6 480.92400000000004H524.4M45.6 614.88H524.4" stroke="#20252b" stroke-opacity=".45" stroke-width="1.1400000000000001"/><text x="45.6" y="512.4" font-size="15.39" font-weight="700">内容物</text><text x="45.6" y="540.948" font-size="14.819999999999999" font-weight="400">サンプル × いくつか</text><text x="45.6" y="567.3000000000001" font-size="14.819999999999999" font-weight="400">サンプル × もう少し</text><text x="45.6" y="593.652" font-size="14.819999999999999" font-weight="400">サンプルの説明書 × 1部</text><text x="45.6" y="641.232" font-size="15.96" font-weight="700">サンプル人用 ｜ サンプル分 ｜ サンプル歳から</text><text x="45.6" y="676.368" font-size="12.54" font-weight="400">この箱も、文章も、すべてサンプルです。</text><text x="45.6" y="699.7919999999999" font-size="10.83" font-weight="400">SAMPLE ONLY · NOT FOR SALE</text></g><g transform="translate(20 152)"><rect width="132" height="732" fill="#e9ebe3"/><g data-face="left" data-display-face="left" data-logo-angle="90" transform="translate(66 366) rotate(90)"><text text-anchor="middle" dominant-baseline="middle" font-size="46.199999999999996" font-weight="650">サンプルパーティ</text><text y="42.24" text-anchor="middle" font-size="18.48">SAMPLE · 左面</text></g></g><g transform="translate(722 152)"><rect width="132" height="732" fill="#e9ebe3"/><g data-face="right" data-display-face="right" data-logo-angle="-90" transform="translate(66 366) rotate(-90)"><text text-anchor="middle" dominant-baseline="middle" font-size="46.199999999999996" font-weight="650">サンプルパーティ</text><text y="42.24" text-anchor="middle" font-size="18.48">SAMPLE · 右面</text></g></g><g transform="translate(152 20)"><rect width="570" height="132" fill="#e9ebe3"/><g data-face="top" data-display-face="top" data-logo-angle="180" transform="translate(285 66) rotate(180)"><text text-anchor="middle" dominant-baseline="middle" font-size="46.199999999999996" font-weight="650">サンプルパーティ</text><text y="42.24" text-anchor="middle" font-size="18.48">SAMPLE · 上面</text></g></g><g transform="translate(152 884)"><rect width="570" height="132" fill="#e9ebe3"/><g data-face="bottom" data-display-face="bottom" data-logo-angle="0" transform="translate(285 66) rotate(0)"><text text-anchor="middle" dominant-baseline="middle" font-size="46.199999999999996" font-weight="650">サンプルパーティ</text><text y="42.24" text-anchor="middle" font-size="18.48">SAMPLE · 下面</text></g></g></g><g fill="none" stroke="#aab5c4" stroke-width="1"><rect x="152" y="152" width="570" height="732"/><rect x="1026" y="152" width="570" height="732"/><rect x="20" y="152" width="132" height="732"/><rect x="722" y="152" width="132" height="732"/><rect x="152" y="20" width="570" height="132"/><rect x="152" y="884" width="570" height="132"/><path d="M1026,20v996M1596,20v996M894,152h834M894,884h834"/></g></svg>